<svg width="43" height="47" xmlns="http://www.w3.org/2000/svg" xmlns:xlink="http://www.w3.org/1999/xlink"><defs><path id="a" d="M.052.15h19.97v20.874H.051z"/><path id="c" d="M0 .083h35.573v25.59H0z"/><path id="e" d="M0 .155h26.908v20.58H0z"/></defs><g fill="none" fill-rule="evenodd"><g transform="translate(21.797 15.866)"><mask id="b" fill="#fff"><use xlink:href="#a"/></mask><path d="M16.563 13.74L3.948 21.024c2.112-3.148 1.347-7.742-2.296-9.845l-1.6-.923L10.6 4.166A6.822 6.822 0 0013.775.15l2.788 1.61c4.611 2.662 4.611 9.317 0 11.98" fill="#55A9D5" mask="url(#b)"/></g><g transform="translate(0 .448)"><mask id="d" fill="#fff"><use xlink:href="#c"/></mask><path d="M35.573 15.569a6.823 6.823 0 01-3.177 4.015l-10.546 6.09L0 13.056V7.011c0-5.325 5.764-8.653 10.375-5.99l25.198 14.548z" fill="#EEC331" mask="url(#d)"/></g><path d="M21.85 26.122L4.41 36.19a6.829 6.829 0 01-4.41.868V13.506l21.85 12.616z" fill="#DC4130"/><g transform="translate(0 25.967)"><mask id="f" fill="#fff"><use xlink:href="#e"/></mask><path d="M25.746 10.923l-15.371 8.874C5.764 22.46 0 19.132 0 13.807V11.09a6.834 6.834 0 004.41-.868L21.85.155l1.6.922c3.642 2.104 4.407 6.698 2.296 9.846" fill="#214672" mask="url(#f)"/></g></g></svg>